<?xml version="1.0" encoding="utf-8"?>
<!-- Generator: Adobe Illustrator 16.0.0, SVG Export Plug-In . SVG Version: 6.00 Build 0)  -->
<!DOCTYPE svg PUBLIC "-//W3C//DTD SVG 1.1//EN" "http://www.w3.org/Graphics/SVG/1.1/DTD/svg11.dtd">
<svg version="1.1" id="Layer_1" xmlns="http://www.w3.org/2000/svg" xmlns:xlink="http://www.w3.org/1999/xlink" x="0px" y="0px"
	 width="64px" height="40px" viewBox="0 0 64 40" enable-background="new 0 0 64 40" xml:space="preserve">
<g transform="translate(-289.60744,-317.50471)">
	<path fill="#F7931A" d="M306.65,338.985c-0.694,2.786-3.516,4.48-6.301,3.787c-2.785-0.695-4.479-3.516-3.785-6.301
		s3.515-4.481,6.3-3.787S307.345,336.201,306.65,338.985L306.65,338.985z"/>
	<path fill="#FFFFFF" d="M303.899,336.988c0.103-0.692-0.423-1.064-1.144-1.312l0.233-0.938l-0.57-0.142l-0.228,0.912
		c-0.15-0.037-0.304-0.072-0.457-0.107l0.229-0.918l-0.57-0.142l-0.233,0.937c-0.125-0.028-0.247-0.056-0.365-0.085l0-0.003
		l-0.787-0.196l-0.151,0.609c0,0,0.423,0.098,0.414,0.103c0.231,0.058,0.273,0.211,0.266,0.332l-0.266,1.068
		c0.016,0.004,0.037,0.01,0.06,0.019c-0.02-0.005-0.04-0.009-0.061-0.015l-0.374,1.495c-0.027,0.071-0.1,0.176-0.261,0.136
		c0.006,0.009-0.414-0.104-0.414-0.104l-0.283,0.654l0.742,0.184c0.138,0.035,0.274,0.071,0.407,0.105l-0.235,0.948l0.57,0.143
		l0.233-0.938c0.156,0.042,0.307,0.082,0.455,0.117l-0.233,0.934l0.571,0.143l0.236-0.946c0.973,0.185,1.705,0.11,2.013-0.771
		c0.248-0.707-0.012-1.116-0.524-1.383C303.543,337.739,303.824,337.494,303.899,336.988L303.899,336.988z M302.596,338.815
		c-0.177,0.709-1.369,0.326-1.756,0.229l0.313-1.256C301.54,337.886,302.78,338.077,302.596,338.815z M302.772,336.977
		c-0.161,0.645-1.154,0.316-1.476,0.236l0.284-1.139C301.902,336.155,302.94,336.305,302.772,336.977z"/>
	<path fill="#4D4D4D" d="M311.645,335.675c0.421,0,0.786,0.076,1.092,0.224c0.307,0.149,0.562,0.352,0.764,0.605
		c0.201,0.255,0.351,0.554,0.447,0.896s0.144,0.711,0.144,1.105c0,0.605-0.111,1.178-0.335,1.717
		c-0.224,0.54-0.528,1.009-0.915,1.409c-0.386,0.398-0.842,0.714-1.368,0.946c-0.526,0.231-1.096,0.349-1.71,0.349
		c-0.08,0-0.218-0.003-0.416-0.006c-0.197-0.005-0.423-0.025-0.676-0.06c-0.256-0.035-0.526-0.088-0.81-0.158
		c-0.285-0.069-0.555-0.166-0.81-0.289l2.277-9.566l2.039-0.316l-0.815,3.395c0.175-0.079,0.35-0.14,0.525-0.184
		C311.255,335.697,311.443,335.675,311.645,335.675L311.645,335.675z M309.935,341.307c0.307,0,0.596-0.075,0.868-0.223
		c0.273-0.149,0.508-0.35,0.705-0.6s0.353-0.533,0.467-0.849c0.113-0.315,0.172-0.646,0.172-0.987c0-0.422-0.071-0.75-0.211-0.988
		c-0.14-0.236-0.399-0.354-0.776-0.354c-0.124,0-0.283,0.023-0.479,0.065c-0.198,0.045-0.375,0.138-0.535,0.277l-0.867,3.604
		c0.052,0.01,0.099,0.019,0.137,0.027c0.04,0.009,0.083,0.015,0.125,0.02c0.044,0.005,0.096,0.007,0.159,0.007
		C309.76,341.307,309.837,341.307,309.935,341.307L309.935,341.307z"/>
	<path fill="#4D4D4D" d="M316.207,342.743h-1.948l1.646-6.921h1.961L316.207,342.743z M317.155,334.978
		c-0.271,0-0.519-0.081-0.737-0.243c-0.221-0.161-0.33-0.409-0.33-0.744c0-0.184,0.037-0.357,0.111-0.52
		c0.075-0.162,0.173-0.302,0.297-0.421c0.123-0.118,0.265-0.212,0.427-0.283c0.163-0.07,0.335-0.105,0.52-0.105
		c0.272,0,0.517,0.081,0.736,0.243c0.219,0.163,0.329,0.412,0.329,0.744c0,0.185-0.037,0.358-0.112,0.52
		c-0.075,0.163-0.173,0.303-0.296,0.421c-0.122,0.118-0.266,0.212-0.427,0.282C317.511,334.944,317.339,334.978,317.155,334.978
		L317.155,334.978z"/>
	<path fill="#4D4D4D" d="M319.572,334.097l2.04-0.316l-0.501,2.04h2.184l-0.395,1.605h-2.171l-0.579,2.42
		c-0.053,0.202-0.083,0.391-0.092,0.566c-0.009,0.176,0.012,0.326,0.065,0.454c0.052,0.127,0.146,0.226,0.283,0.295
		c0.135,0.071,0.33,0.106,0.585,0.106c0.209,0,0.414-0.02,0.612-0.06c0.197-0.039,0.397-0.093,0.598-0.165l0.146,1.502
		c-0.263,0.097-0.548,0.18-0.855,0.248c-0.308,0.071-0.672,0.105-1.093,0.105c-0.605,0-1.074-0.09-1.408-0.269
		c-0.334-0.18-0.57-0.427-0.711-0.738c-0.139-0.311-0.201-0.668-0.184-1.071c0.018-0.404,0.08-0.83,0.184-1.277L319.572,334.097
		L319.572,334.097z"/>
	<path fill="#4D4D4D" d="M323.209,339.978c0-0.596,0.098-1.157,0.29-1.685c0.192-0.526,0.47-0.987,0.83-1.383
		c0.358-0.393,0.796-0.705,1.31-0.934c0.512-0.227,1.084-0.342,1.717-0.342c0.395,0,0.748,0.038,1.059,0.112
		c0.313,0.075,0.594,0.173,0.85,0.295l-0.672,1.528c-0.176-0.071-0.357-0.135-0.546-0.191s-0.419-0.086-0.69-0.086
		c-0.65,0-1.164,0.225-1.547,0.672c-0.381,0.446-0.572,1.048-0.572,1.803c0,0.447,0.096,0.809,0.289,1.085s0.549,0.415,1.066,0.415
		c0.254,0,0.501-0.027,0.737-0.079c0.237-0.053,0.446-0.119,0.632-0.196l0.146,1.564c-0.247,0.096-0.519,0.183-0.816,0.258
		c-0.298,0.073-0.654,0.11-1.066,0.11c-0.544,0-1.005-0.079-1.382-0.235c-0.377-0.159-0.688-0.371-0.934-0.64
		c-0.247-0.268-0.424-0.581-0.533-0.94C323.266,340.75,323.209,340.373,323.209,339.978L323.209,339.978z"/>
	<path fill="#4D4D4D" d="M331.861,342.926c-0.465,0-0.868-0.07-1.211-0.211c-0.342-0.14-0.624-0.337-0.848-0.592
		c-0.225-0.254-0.393-0.555-0.507-0.901c-0.115-0.346-0.171-0.729-0.171-1.149c0-0.528,0.086-1.056,0.257-1.581
		c0.17-0.525,0.423-1,0.757-1.42c0.332-0.422,0.741-0.766,1.223-1.035c0.482-0.267,1.035-0.401,1.657-0.401
		c0.457,0,0.858,0.071,1.206,0.211c0.345,0.14,0.629,0.338,0.855,0.592c0.223,0.255,0.392,0.555,0.505,0.902
		c0.114,0.346,0.171,0.73,0.171,1.15c0,0.525-0.084,1.053-0.249,1.581c-0.166,0.523-0.413,0.998-0.737,1.42
		c-0.324,0.421-0.73,0.765-1.217,1.032S332.502,342.926,331.861,342.926L331.861,342.926z M332.835,337.294
		c-0.288,0-0.544,0.084-0.763,0.25c-0.219,0.168-0.403,0.378-0.552,0.632c-0.15,0.255-0.261,0.534-0.337,0.835
		c-0.074,0.305-0.111,0.59-0.111,0.862c0,0.439,0.071,0.781,0.211,1.027c0.141,0.244,0.395,0.368,0.764,0.368
		c0.289,0,0.543-0.084,0.763-0.25c0.218-0.167,0.402-0.377,0.552-0.632c0.149-0.254,0.262-0.533,0.338-0.836
		c0.073-0.302,0.11-0.59,0.11-0.862c0-0.438-0.07-0.779-0.211-1.025S333.204,337.294,332.835,337.294L332.835,337.294z"/>
	<path fill="#4D4D4D" d="M337.878,342.743h-1.949l1.645-6.921h1.962L337.878,342.743z M338.824,334.978
		c-0.271,0-0.518-0.081-0.736-0.243c-0.219-0.161-0.329-0.409-0.329-0.744c0-0.184,0.037-0.357,0.111-0.52
		c0.074-0.162,0.174-0.302,0.297-0.421c0.122-0.118,0.267-0.212,0.428-0.283c0.161-0.07,0.335-0.105,0.519-0.105
		c0.272,0,0.519,0.081,0.738,0.243c0.219,0.163,0.329,0.412,0.329,0.744c0,0.185-0.039,0.358-0.112,0.52
		c-0.074,0.163-0.173,0.303-0.296,0.421c-0.123,0.118-0.265,0.212-0.427,0.282C339.183,334.944,339.009,334.978,338.824,334.978z"/>
	<path fill="#4D4D4D" d="M340.939,336.136c0.147-0.043,0.313-0.095,0.492-0.151c0.181-0.057,0.381-0.109,0.606-0.157
		c0.223-0.048,0.474-0.088,0.749-0.119c0.276-0.031,0.592-0.047,0.94-0.047c1.027,0,1.735,0.299,2.126,0.896
		c0.391,0.597,0.459,1.413,0.205,2.447l-0.896,3.737h-1.961l0.869-3.658c0.052-0.229,0.094-0.45,0.124-0.665
		c0.031-0.214,0.03-0.402-0.007-0.566c-0.034-0.16-0.116-0.292-0.242-0.395c-0.129-0.101-0.323-0.151-0.587-0.151
		c-0.254,0-0.512,0.028-0.775,0.08l-1.277,5.355h-1.961L340.939,336.136z"/>
</g>
</svg>
