<?xml version="1.0" encoding="utf-8"?>
<!-- Generator: Adobe Illustrator 15.1.0, SVG Export Plug-In . SVG Version: 6.00 Build 0)  -->
<!DOCTYPE svg PUBLIC "-//W3C//DTD SVG 1.1//EN" "http://www.w3.org/Graphics/SVG/1.1/DTD/svg11.dtd">
<svg version="1.1" id="Layer_1" xmlns="http://www.w3.org/2000/svg" xmlns:xlink="http://www.w3.org/1999/xlink" x="0px" y="0px"
	 width="64px" height="40px" viewBox="0 0 64 40" enable-background="new 0 0 64 40" xml:space="preserve">
<g>
	<g>
		<g>
			<path fill="#000268" d="M10.152,9.873c14.449,0,28.898,0,43.346,0c0.336,0.054,0.572,0.136,0.807,0.212
				c1.774,0.575,2.545,1.931,2.545,4.156c0,4.116,0,9.137,0,13.317c0,2.082-1.072,3.438-2.8,3.858
				c-0.735,0.181-1.733,0.086-2.715,0.086c-12.961,0-25.938,0-38.892,0c-0.957,0-1.973,0.108-2.714-0.043
				C8.114,31.13,7.2,29.98,6.801,28.193c0-4.989,0-9.979,0-14.97C7.133,11.321,8.25,10.204,10.152,9.873z M13.036,11.484
				c-0.96,0-1.955-0.115-2.841,0c-0.702,0.09-1.358,0.646-1.612,1.188c-0.386,0.822-0.169,2.785-0.169,4.114
				c0,2.709,0,5.231,0,7.846c0,1.207-0.208,2.974,0.084,3.859c0.198,0.599,0.727,1.101,1.357,1.313
				c0.685,0.233,1.831,0.129,2.756,0.129c6.913,0,13.291,0,20.189,0c0-6.15,0-12.301,0-18.451
				C26.225,11.484,19.576,11.484,13.036,11.484z M38.611,23.4c2.604-0.346,2.796-5.312,0-5.64c-1.172-0.138-1.875,0.456-2.291,1.018
				c0-0.297,0-0.595,0-0.891c-0.579,0-1.158,0-1.738,0c0,2.53,0,5.062,0,7.592c0.622,0,1.244,0,1.865,0c0-0.977,0-1.951,0-2.929
				C36.889,23.197,37.626,23.532,38.611,23.4z M46.881,19.797c-0.186-2.222-2.863-2.384-4.749-1.654
				c-0.005,0.458,0.002,0.902,0.084,1.272c0.718-0.505,2.979-0.759,2.886,0.509c-1.816-0.186-3.555,0.108-3.647,1.654
				c-0.12,1.966,2.881,2.417,3.774,0.933c-0.012,0.278,0.002,0.536,0.041,0.765c0.565,0,1.131,0,1.697,0
				C46.771,22.225,46.96,20.741,46.881,19.797z M49.087,22.087c0.169,0.438,0.542,1.093,0.509,1.399
				c-0.062,0.582-0.957,0.854-1.654,0.551c-0.055,0.47-0.094,0.954-0.127,1.443c2.884,0.82,3.463-1.646,4.199-3.479
				c0.627-1.563,1.112-2.926,1.569-4.115c-0.622,0-1.245,0-1.867,0c-0.346,1.18-0.704,2.348-1.103,3.478
				c-0.409-1.132-0.779-2.302-1.146-3.478c-0.68,0-1.356,0-2.036,0C47.875,19.043,48.572,20.757,49.087,22.087z"/>
			<path fill="#FFFFFF" d="M32.801,11.484c0,6.15,0,12.299,0,18.45c-6.898,0-13.276,0-20.189,0c-0.925,0-2.071,0.105-2.756-0.127
				c-0.631-0.215-1.16-0.717-1.357-1.314c-0.292-0.887-0.084-2.652-0.084-3.859c0-2.613,0-5.137,0-7.846
				c0-1.329-0.216-3.292,0.169-4.114c0.254-0.542,0.91-1.098,1.612-1.188c0.886-0.115,1.881,0,2.841,0
				C19.576,11.484,26.225,11.484,32.801,11.484z M18.338,15.641c0,0.453,0,0.905,0,1.357c0.608,0,1.216,0,1.824,0
				c0-0.452,0-0.904,0-1.357C19.554,15.641,18.946,15.641,18.338,15.641z M11.807,18.354c-1.025,0.979-1.026,3.326,0,4.328
				c0.862,0.84,2.838,0.764,3.477-0.257c0.388,2.134-2.323,2.084-3.477,1.357c-0.014,0.509-0.076,0.972-0.085,1.483
				c1.669,0.525,4.11,0.517,4.919-0.763c0.969-1.528,0.065-4.224,0.382-6.617c-0.552,0-1.103,0-1.655,0
				c-0.027,0.312,0.056,0.735-0.042,0.975C14.833,17.642,12.732,17.472,11.807,18.354z M23.13,18.906c0-0.339,0-0.679,0-1.018
				c-0.566,0-1.131,0-1.696,0c0,1.795,0,3.59,0,5.385c0.622,0,1.244,0,1.866,0c-0.021-1.959-0.358-4.457,1.994-3.9
				c0.013-0.525,0.081-0.995,0.085-1.527C24.253,17.536,23.463,18.156,23.13,18.906z M25.463,20.561
				c-0.033,2.431,2.835,3.571,4.92,2.461c1.216-0.649,1.933-2.756,0.806-4.199c-0.449-0.575-1.576-1.104-2.842-1.02
				C26.578,17.922,25.487,18.845,25.463,20.561z M18.38,17.888c-0.099,1.711-0.015,3.605-0.042,5.385c0.608,0,1.216,0,1.824,0
				c0-1.795,0-3.59,0-5.385C19.567,17.888,18.974,17.888,18.38,17.888z"/>
			<path fill="#D8192F" d="M20.162,15.641c0,0.453,0,0.905,0,1.357c-0.607,0-1.216,0-1.824,0c0-0.452,0-0.904,0-1.357
				C18.946,15.641,19.554,15.641,20.162,15.641z"/>
			<path fill="#D8192F" d="M15.327,18.863c0.098-0.24,0.015-0.664,0.042-0.975c0.552,0,1.103,0,1.655,0
				c-0.317,2.393,0.586,5.086-0.382,6.617c-0.81,1.278-3.25,1.288-4.919,0.763c0.009-0.513,0.071-0.976,0.085-1.483
				c1.154,0.727,3.865,0.776,3.477-1.357c-0.639,1.021-2.615,1.097-3.477,0.257c-1.026-1.002-1.025-3.35,0-4.328
				C12.732,17.472,14.833,17.642,15.327,18.863z M13.927,21.875c1.717,0.168,1.763-3.117-0.171-2.629
				C12.615,19.534,12.745,21.759,13.927,21.875z"/>
			<path fill="#D8192F" d="M25.378,17.846c-0.004,0.532-0.072,1.002-0.085,1.527c-2.352-0.556-2.015,1.941-1.994,3.9
				c-0.622,0-1.244,0-1.866,0c0-1.795,0-3.59,0-5.385c0.565,0,1.13,0,1.696,0c0,0.339,0,0.679,0,1.018
				C23.463,18.156,24.253,17.536,25.378,17.846z"/>
			<path fill="#D8192F" d="M28.347,17.803c1.266-0.085,2.393,0.443,2.842,1.02c1.126,1.442,0.41,3.549-0.806,4.199
				c-2.085,1.11-4.953-0.03-4.92-2.461C25.487,18.845,26.578,17.922,28.347,17.803z M27.88,21.917
				c0.572,0.431,1.361,0.242,1.696-0.254c0.722-1.065,0.105-2.856-1.272-2.545C27.274,19.351,27.039,21.285,27.88,21.917z"/>
			<path fill="#FFFFFF" d="M36.447,22.553c0,0.978,0,1.952,0,2.928c-0.621,0-1.243,0-1.865,0c0-2.529,0-5.062,0-7.591
				c0.58,0,1.159,0,1.738,0c0,0.296,0,0.594,0,0.891c0.416-0.563,1.119-1.156,2.291-1.018c2.796,0.329,2.604,5.294,0,5.64
				C37.626,23.532,36.889,23.197,36.447,22.553z M37.381,19.204c-1.171,0.176-1.26,2.39-0.085,2.756
				C39.262,22.243,39.129,18.938,37.381,19.204z"/>
			<path fill="#FFFFFF" d="M46.967,23.273c-0.566,0-1.132,0-1.697,0c-0.039-0.228-0.053-0.484-0.041-0.764
				c-0.895,1.484-3.896,1.033-3.774-0.933c0.094-1.546,1.831-1.84,3.647-1.654c0.094-1.268-2.168-1.014-2.886-0.509
				c-0.082-0.371-0.089-0.815-0.084-1.272c1.886-0.73,4.563-0.567,4.749,1.654C46.96,20.741,46.771,22.225,46.967,23.273z
				 M43.234,21.79c0.086,0.233,0.412,0.362,0.636,0.382c0.767,0.063,1.216-0.598,1.272-1.271
				C44.286,20.743,42.895,20.885,43.234,21.79z"/>
			<path fill="#D8192F" d="M20.162,17.888c0,1.795,0,3.59,0,5.385c-0.607,0-1.216,0-1.824,0c0.028-1.78-0.056-3.674,0.042-5.385
				C18.974,17.888,19.567,17.888,20.162,17.888z"/>
			<path fill="#FFFFFF" d="M47.434,17.888c0.678,0,1.355,0,2.035,0c0.365,1.176,0.735,2.346,1.145,3.478
				c0.398-1.13,0.758-2.298,1.104-3.478c0.622,0,1.245,0,1.867,0c-0.457,1.188-0.943,2.551-1.568,4.115
				c-0.736,1.832-1.316,4.299-4.199,3.478c0.033-0.488,0.072-0.974,0.127-1.442c0.697,0.304,1.593,0.03,1.654-0.55
				c0.032-0.309-0.341-0.963-0.51-1.4C48.572,20.757,47.875,19.043,47.434,17.888z"/>
			<path fill="#FFFFFF" d="M28.305,19.118c1.377-0.311,1.994,1.479,1.272,2.545c-0.335,0.496-1.125,0.685-1.696,0.254
				C27.039,21.285,27.274,19.351,28.305,19.118z"/>
			<path fill="#FFFFFF" d="M13.756,19.246c1.934-0.487,1.888,2.797,0.171,2.629C12.745,21.759,12.615,19.534,13.756,19.246z"/>
			<path fill="#000268" d="M37.296,21.96c-1.175-0.366-1.086-2.58,0.085-2.756C39.129,18.938,39.262,22.243,37.296,21.96z"/>
			<path fill="#000268" d="M45.143,20.9c-0.057,0.674-0.506,1.334-1.271,1.271c-0.225-0.019-0.549-0.147-0.637-0.382
				C42.895,20.885,44.286,20.743,45.143,20.9z"/>
		</g>
	</g>
</g>
</svg>
