<?xml version="1.0" encoding="utf-8"?>
<!-- Generator: Adobe Illustrator 15.1.0, SVG Export Plug-In . SVG Version: 6.00 Build 0)  -->
<!DOCTYPE svg PUBLIC "-//W3C//DTD SVG 1.1//EN" "http://www.w3.org/Graphics/SVG/1.1/DTD/svg11.dtd">
<svg version="1.1" id="Layer_1" xmlns="http://www.w3.org/2000/svg" xmlns:xlink="http://www.w3.org/1999/xlink" x="0px" y="0px"
	 width="64px" height="40px" viewBox="0 0 64 40" enable-background="new 0 0 64 40" xml:space="preserve">
<g>
	<g>
		<g>
			<path fill="#FFFFFF" d="M43.49,11.405c-2.027-1.803-4.959-2.755-8.475-2.755c-0.625,0-14.369,0-15.973,0
				c0,1.637,0,22.223,0,23.86c1.604,0,15.348,0,15.973,0c8.026,0,11.93-3.902,11.93-11.931
				C46.945,16.529,45.782,13.442,43.49,11.405z"/>
		</g>
		<rect x="20.724" y="22.311" width="5.057" height="8.396"/>
		<circle cx="23.3" cy="18.112" r="2.863"/>
		<g>
			<g>
				<path d="M35.359,6.823H17.216v27.515h18.144v-0.005c3.964-0.056,7.104-1.039,9.33-2.935c2.711-2.307,4.084-5.944,4.084-10.818
					c0-2.329-0.361-4.418-1.073-6.21c-0.683-1.714-1.688-3.171-2.995-4.331c-2.299-2.043-5.525-3.147-9.346-3.21V6.823L35.359,6.823
					z M35.016,8.65c3.517,0,6.447,0.952,8.476,2.755c2.292,2.037,3.454,5.124,3.454,9.175c0,8.027-3.901,11.931-11.93,11.931
					c-0.623,0-14.368,0-15.972,0c0-1.638,0-22.224,0-23.86C20.647,8.65,34.393,8.65,35.016,8.65z"/>
			</g>
		</g>
		<g>
			<g>
				<path fill="#CD0067" d="M34.518,30.717h-6.415V10.875h6.415h-0.261c5.351,0,11.044,2.111,11.044,9.947
					c0,8.283-5.693,9.895-11.044,9.895H34.518z"/>
			</g>
		</g>
		<g>
			<g>
				<path fill="#FFFFFF" d="M26.997,15.997h1.761c0.397,0,0.699,0.03,0.908,0.091c0.28,0.083,0.52,0.229,0.719,0.439
					c0.2,0.211,0.352,0.469,0.456,0.773c0.104,0.306,0.157,0.682,0.157,1.129c0,0.393-0.049,0.731-0.146,1.017
					c-0.119,0.347-0.29,0.628-0.511,0.843c-0.167,0.163-0.393,0.29-0.677,0.382c-0.213,0.067-0.498,0.101-0.853,0.101h-1.813
					L26.997,15.997L26.997,15.997z M27.959,16.807v3.155h0.721c0.271,0,0.465-0.015,0.584-0.046
					c0.157-0.039,0.287-0.104,0.391-0.197c0.103-0.094,0.188-0.246,0.252-0.46c0.066-0.214,0.098-0.505,0.098-0.873
					c0-0.368-0.032-0.651-0.098-0.849c-0.065-0.196-0.156-0.351-0.274-0.461c-0.118-0.11-0.266-0.186-0.447-0.225
					c-0.135-0.03-0.399-0.045-0.792-0.045L27.959,16.807L27.959,16.807z"/>
				<path fill="#FFFFFF" d="M26.866,15.866v5.036h1.944c0.367,0,0.667-0.036,0.892-0.107c0.303-0.097,0.548-0.236,0.729-0.412
					c0.235-0.228,0.418-0.529,0.543-0.895c0.102-0.297,0.154-0.652,0.154-1.059c0-0.459-0.056-0.854-0.164-1.171
					c-0.109-0.321-0.273-0.598-0.484-0.82c-0.215-0.227-0.477-0.387-0.777-0.476c-0.223-0.065-0.532-0.097-0.945-0.097
					L26.866,15.866L26.866,15.866z M28.758,16.127c0.382,0,0.676,0.029,0.872,0.086c0.255,0.075,0.478,0.212,0.661,0.405
					c0.185,0.195,0.329,0.439,0.426,0.726c0.099,0.29,0.149,0.655,0.149,1.086c0,0.377-0.047,0.704-0.139,0.974
					c-0.112,0.326-0.273,0.593-0.479,0.793c-0.151,0.146-0.362,0.265-0.626,0.35c-0.198,0.063-0.472,0.096-0.813,0.096
					c0,0-1.458,0-1.683,0c0-0.24,0-4.273,0-4.515C27.351,16.127,28.758,16.127,28.758,16.127z"/>
				<path fill="#FFFFFF" d="M27.829,16.676v3.417h0.852c0.284,0,0.485-0.016,0.617-0.05c0.176-0.044,0.326-0.121,0.445-0.228
					c0.123-0.11,0.218-0.28,0.291-0.519c0.07-0.229,0.104-0.526,0.104-0.911c0-0.386-0.034-0.677-0.104-0.89
					c-0.072-0.217-0.176-0.391-0.309-0.515c-0.134-0.127-0.306-0.213-0.509-0.258c-0.145-0.032-0.413-0.048-0.82-0.048h-0.567
					V16.676z M28.394,16.937c0.476,0,0.678,0.023,0.764,0.043c0.157,0.033,0.287,0.098,0.386,0.192
					c0.101,0.095,0.182,0.231,0.24,0.406c0.061,0.184,0.091,0.455,0.091,0.808c0,0.354-0.031,0.635-0.092,0.834
					c-0.058,0.189-0.131,0.325-0.216,0.402c-0.087,0.077-0.199,0.134-0.334,0.168c-0.109,0.027-0.294,0.042-0.553,0.042
					c0,0-0.416,0-0.59,0c0-0.23,0-2.666,0-2.896C28.217,16.937,28.394,16.937,28.394,16.937z"/>
			</g>
			<g>
				<path fill="#FFFFFF" d="M32.087,20.771v-4.774h3.533v0.81h-2.57v1.057h2.392v0.81H33.05v1.289h2.662v0.811h-3.625V20.771z"/>
				<path fill="#FFFFFF" d="M31.956,15.866v5.036h3.887v-1.07c0,0-2.427,0-2.663,0c0-0.188,0-0.841,0-1.028c0.233,0,2.393,0,2.393,0
					v-1.07c0,0-2.158,0-2.393,0c0-0.173,0-0.624,0-0.797c0.235,0,2.571,0,2.571,0v-1.07L31.956,15.866L31.956,15.866z M35.49,16.127
					c0,0.148,0,0.4,0,0.549c-0.235,0-2.572,0-2.572,0v1.318c0,0,2.159,0,2.393,0c0,0.148,0,0.399,0,0.548c-0.232,0-2.393,0-2.393,0
					v1.551c0,0,2.428,0,2.663,0c0,0.147,0,0.399,0,0.548c-0.233,0-3.131,0-3.364,0c0-0.239,0-4.272,0-4.514
					C32.45,16.127,35.257,16.127,35.49,16.127z"/>
			</g>
			<g>
				<path fill="#FFFFFF" d="M41.104,20.771h-1.049l-0.416-1.083H37.73l-0.396,1.083h-1.022l1.854-4.774h1.024L41.104,20.771z
					 M39.329,18.878l-0.658-1.769l-0.646,1.769H39.329z"/>
				<path fill="#FFFFFF" d="M38.078,15.866l-1.956,5.036h1.305c0,0,0.343-0.938,0.396-1.084c0.158,0,1.572,0,1.727,0
					c0.055,0.143,0.417,1.084,0.417,1.084h1.331l-2.014-5.036H38.078z M39.105,16.127c0.061,0.153,1.674,4.188,1.805,4.514
					c-0.23,0-0.646,0-0.768,0c-0.055-0.143-0.416-1.083-0.416-1.083h-2.088c0,0-0.343,0.938-0.396,1.083c-0.121,0-0.517,0-0.741,0
					c0.126-0.323,1.693-4.357,1.755-4.514C38.393,16.127,38.973,16.127,39.105,16.127z"/>
				<path fill="#FFFFFF" d="M37.839,19.009h1.679l-0.849-2.276L37.839,19.009z M38.672,17.487c0.143,0.385,0.385,1.034,0.469,1.261
					c-0.229,0-0.701,0-0.929,0C38.294,18.522,38.531,17.873,38.672,17.487z"/>
			</g>
			<g>
				<path fill="#FFFFFF" d="M41.908,20.771v-4.735h0.963v3.926h2.398v0.81H41.908L41.908,20.771z"/>
				<path fill="#FFFFFF" d="M41.777,15.905v4.997H45.4v-1.07c0,0-2.166,0-2.398,0c0-0.244,0-3.927,0-3.927H41.777z M42.74,16.166
					c0,0.244,0,3.927,0,3.927s2.164,0,2.398,0c0,0.147,0,0.399,0,0.548c-0.231,0-2.869,0-3.101,0c0-0.239,0-4.233,0-4.475
					C42.203,16.166,42.575,16.166,42.74,16.166z"/>
			</g>
		</g>
	</g>
</g>
</svg>
