<?xml version="1.0" encoding="utf-8"?>
<!-- Generator: Adobe Illustrator 15.1.0, SVG Export Plug-In . SVG Version: 6.00 Build 0)  -->
<!DOCTYPE svg PUBLIC "-//W3C//DTD SVG 1.1//EN" "http://www.w3.org/Graphics/SVG/1.1/DTD/svg11.dtd">
<svg version="1.1" id="Layer_1" xmlns="http://www.w3.org/2000/svg" xmlns:xlink="http://www.w3.org/1999/xlink" x="0px" y="0px"
	 width="64px" height="40px" viewBox="0 0 64 40" enable-background="new 0 0 64 40" xml:space="preserve">
<g>
	<path fill="#83BA3B" d="M64,37.867C64,39.045,63.045,40,61.867,40H2.134C0.955,40,0,39.045,0,37.867V2.133C0,0.955,0.955,0,2.134,0
		h59.733C63.045,0,64,0.955,64,2.133V37.867z"/>
	<g>
		<path fill="#FFFFFF" d="M55.381,16.444c-0.618-0.424-1.555-0.638-2.781-0.638h-3.213l-1.195,6.485h-4.21l0.271-1.472h2.536
			l0.301-1.652l-2.534,0.004l0.271-1.466h2.612l0.347-1.899h-5.306l-1.134,6.152H39.4l1.142-6.152h-2.773l-1.134,6.152h-1.896
			l1.144-6.152h-2.771l-1.198,6.485h-4.24l0.268-1.472h2.546l0.3-1.644l-2.543-0.002l0.271-1.469h2.641l0.345-1.899H14.972
			l-0.941,5.139l-1.875-5.139H9.281l-1.548,8.387h2.747l0.937-5.281l1.819,5.281h9.847l1.197-6.487h1.541l-1.198,6.487h25.91
			l0.75-4.095l1.216,4.095h2.749l-1.259-3.347l0.288-0.062c0.634-0.136,1.13-0.428,1.474-0.865c0.344-0.442,0.52-1.01,0.52-1.691
			C56.269,17.436,55.979,16.852,55.381,16.444z M20.69,22.292h-4.206l0.271-1.472h2.638l0.3-1.658h-2.613l0.252-1.456h4.199
			L20.69,22.292z M53.114,19.467c-0.276,0.193-0.678,0.287-1.226,0.287h-0.236h-0.307l0.417-2.251h0.212h0.188
			c0.455,0,0.788,0.072,1.017,0.222c0.179,0.116,0.392,0.348,0.392,0.785C53.57,19.037,53.323,19.321,53.114,19.467z"/>
	</g>
</g>
</svg>
