<?xml version="1.0" encoding="utf-8"?>
<!-- Generator: Adobe Illustrator 16.0.0, SVG Export Plug-In . SVG Version: 6.00 Build 0)  -->
<!DOCTYPE svg PUBLIC "-//W3C//DTD SVG 1.1//EN" "http://www.w3.org/Graphics/SVG/1.1/DTD/svg11.dtd">
<svg version="1.1" id="Layer_1" xmlns="http://www.w3.org/2000/svg" xmlns:xlink="http://www.w3.org/1999/xlink" x="0px" y="0px"
	 width="110px" height="69px" viewBox="0 0 110 69" enable-background="new 0 0 110 69" xml:space="preserve">
<g>
	<path id="path2491" fill="#008AC9" d="M26.212,33.686c-0.01-0.312-0.157-0.475-0.443-0.483h-1.526
		c-0.361,0.022-0.548,0.22-0.557,0.594v2.744c0.008,0.385,0.215,0.581,0.616,0.593h1.398c0.146,0,0.266-0.055,0.362-0.165
		c0.101-0.081,0.148-0.188,0.148-0.32V33.686z M21.726,33.297c0.011-0.688,0.164-1.209,0.46-1.566
		c0.155-0.149,0.35-0.274,0.587-0.378c0.245-0.11,0.483-0.163,0.714-0.163h2.801c1.236,0.011,1.864,0.687,1.884,2.028v4.133
		c-0.009,0.475-0.196,0.891-0.556,1.235c-0.358,0.363-0.785,0.549-1.282,0.561h-2.648v2.979h-1.96V33.297"/>
	<path id="path2493" fill="#008AC9" d="M31.71,36.733c0,0.114,0.053,0.206,0.156,0.274c0.092,0.082,0.208,0.125,0.355,0.125h1.505
		c0.341,0,0.518-0.132,0.527-0.399v-0.562c0-0.308-0.18-0.461-0.541-0.461h-1.491c-0.196,0-0.332,0.033-0.407,0.093
		c-0.07,0.073-0.104,0.218-0.104,0.429V36.733z M34.254,33.638c0.009-0.302-0.165-0.445-0.527-0.436H29.78v-2.013h4.444
		c1.294,0.021,1.951,0.646,1.973,1.882v4.211c-0.011,0.531-0.174,0.971-0.49,1.321c-0.332,0.36-0.758,0.543-1.281,0.543H31.74
		c-1.307-0.012-1.97-0.607-1.99-1.796v-1.624c0.011-1.241,0.644-1.869,1.898-1.892h2.606V33.638"/>
	<path id="path2495" fill="#008AC9" d="M41.701,40.11c0.155-0.009,0.291-0.065,0.399-0.164c0.105-0.094,0.157-0.2,0.157-0.323
		v-0.477H39.75c-0.328,0-0.588-0.043-0.784-0.126c-0.207-0.075-0.412-0.217-0.619-0.416c-0.196-0.212-0.336-0.435-0.423-0.666
		c-0.088-0.212-0.134-0.48-0.134-0.806v-5.943h1.959v5.306c0,0.425,0.173,0.638,0.525,0.638h1.383c0.165,0,0.308-0.055,0.428-0.165
		c0.116-0.093,0.172-0.202,0.172-0.333v-5.445h1.944v8.768c-0.011,0.648-0.178,1.168-0.498,1.562
		c-0.326,0.393-0.772,0.597-1.34,0.605H37.79V40.11H41.701"/>
	<path id="path2497" fill="#008AC9" d="M45.74,37.133h3.492c0.319-0.012,0.485-0.14,0.495-0.385v-0.181
		c0-0.054-0.015-0.111-0.046-0.172c-0.078-0.153-0.174-0.229-0.288-0.229h-1.731c-0.513-0.012-0.951-0.188-1.319-0.528
		c-0.373-0.315-0.565-0.705-0.576-1.16v-1.5c0.021-1.172,0.657-1.769,1.911-1.789h4.049v2.013h-3.431
		c-0.403,0-0.605,0.125-0.605,0.369v0.196c0,0.255,0.207,0.383,0.621,0.383h1.725c0.46,0.012,0.852,0.188,1.179,0.531
		c0.33,0.345,0.5,0.756,0.511,1.232v1.47c-0.011,0.412-0.202,0.824-0.568,1.235c-0.179,0.201-0.362,0.34-0.545,0.418
		c-0.189,0.073-0.447,0.109-0.776,0.109H45.74V37.133"/>
	<path id="path2499" fill="#008AC9" d="M55.08,36.733c0,0.114,0.053,0.206,0.158,0.274c0.092,0.082,0.209,0.125,0.354,0.125H57.1
		c0.341,0,0.517-0.132,0.526-0.399v-0.562c0-0.308-0.183-0.461-0.542-0.461h-1.492c-0.195,0-0.331,0.033-0.405,0.093
		c-0.07,0.073-0.106,0.218-0.106,0.429V36.733z M57.626,33.638c0.01-0.302-0.166-0.445-0.528-0.436h-3.947v-2.013h4.445
		c1.293,0.021,1.951,0.646,1.972,1.882v4.211c-0.012,0.531-0.176,0.971-0.49,1.321c-0.33,0.36-0.756,0.543-1.279,0.543h-2.688
		c-1.307-0.012-1.969-0.607-1.988-1.796v-1.624c0.009-1.241,0.643-1.869,1.897-1.892h2.607V33.638"/>
	<path id="path2501" fill="#008AC9" d="M61.16,30.048c0.011-0.544,0.212-0.98,0.604-1.308c0.381-0.332,0.882-0.503,1.5-0.512h1.245
		v1.944h-0.755c-0.415,0.009-0.625,0.208-0.635,0.591v0.426h1.39v2.015h-1.39v5.943h-1.96V30.048"/>
	<path id="path2503" fill="#008AC9" d="M70.081,33.6v-0.048c0-0.101-0.041-0.188-0.125-0.255c-0.092-0.064-0.202-0.095-0.338-0.095
		h-1.364c-0.174,0-0.315,0.049-0.425,0.149c-0.136,0.093-0.205,0.215-0.205,0.365v0.809L70.081,33.6z M67.656,36.444v0.127
		c0,0.161,0.041,0.29,0.127,0.382c0.061,0.118,0.145,0.18,0.254,0.18h4.025v2.014h-4.279c-0.391,0-0.695-0.036-0.91-0.11
		c-0.235-0.077-0.446-0.204-0.631-0.38c-0.215-0.213-0.362-0.43-0.436-0.652c-0.081-0.234-0.12-0.542-0.12-0.928l-0.018-4.029
		c0.021-1.217,0.658-1.837,1.907-1.857h2.641c1.222,0.021,1.841,0.662,1.859,1.927v1.592L67.656,36.444"/>
	<path id="path2505" fill="#008AC9" d="M76.225,39.146c-0.297,0-0.567-0.029-0.813-0.077c-0.258-0.043-0.514-0.161-0.775-0.365
		c-0.271-0.232-0.455-0.495-0.557-0.785c-0.109-0.285-0.161-0.609-0.161-0.973v-3.757c-0.011-0.306,0.021-0.575,0.092-0.808
		c0.065-0.233,0.204-0.462,0.414-0.685c0.238-0.234,0.482-0.391,0.739-0.467c0.246-0.062,0.524-0.093,0.836-0.093h3.005v0.471H76.07
		c-0.519,0-0.926,0.106-1.223,0.319c-0.304,0.231-0.46,0.633-0.46,1.198v3.758c0,0.267,0.04,0.523,0.121,0.771
		c0.081,0.243,0.218,0.458,0.416,0.645c0.213,0.162,0.425,0.264,0.632,0.305c0.218,0.047,0.449,0.07,0.694,0.07h2.799v0.472H76.225"
		/>
	<path id="path2507" fill="#008AC9" d="M86.729,34.271h-3.938c-0.472,0.011-0.842,0.157-1.106,0.438
		c-0.276,0.284-0.412,0.677-0.412,1.172v1.2c0,0.231,0.024,0.445,0.074,0.637c0.05,0.201,0.173,0.382,0.369,0.535
		c0.339,0.282,0.716,0.422,1.128,0.422h2.387c0.996-0.011,1.498-0.536,1.498-1.579V34.271z M87.196,36.979
		c0,0.304-0.024,0.568-0.062,0.802c-0.064,0.254-0.194,0.499-0.392,0.732c-0.411,0.433-0.922,0.645-1.53,0.634h-2.341
		c-0.608,0-1.102-0.183-1.483-0.543c-0.391-0.358-0.588-0.855-0.588-1.493v-1.212c0.021-1.365,0.699-2.065,2.042-2.096h3.9v-0.531
		c0-0.437-0.128-0.819-0.378-1.148c-0.161-0.214-0.35-0.356-0.564-0.43c-0.216-0.058-0.46-0.085-0.731-0.085h-4.255v-0.471h4.034
		c0.368,0,0.703,0.025,1.004,0.076c0.155,0.03,0.297,0.092,0.427,0.179c0.139,0.084,0.267,0.205,0.387,0.365
		c0.362,0.466,0.538,1.006,0.53,1.61V36.979"/>
	<path id="path2509" fill="#008AC9" d="M91.6,31.608c-1.092,0.021-1.63,0.615-1.609,1.789v5.749h-0.47v-5.748
		c-0.022-1.508,0.695-2.261,2.155-2.261h0.521v0.471H91.6"/>
	<path id="path2511" fill="#008AC9" d="M99.532,31.61H95.82c-0.269,0-0.507,0.029-0.724,0.087c-0.227,0.051-0.443,0.188-0.648,0.411
		c-0.195,0.203-0.319,0.405-0.37,0.606c-0.069,0.203-0.1,0.447-0.089,0.73v3.666c0,0.61,0.176,1.024,0.533,1.247
		c0.178,0.104,0.37,0.181,0.589,0.234c0.216,0.056,0.458,0.084,0.724,0.084h1.623c0.605,0,1.102-0.138,1.483-0.421
		c0.382-0.264,0.576-0.718,0.591-1.368V31.61z M100,36.92c-0.041,1.517-0.845,2.261-2.407,2.229h-1.741
		c-0.367,0-0.695-0.032-0.985-0.094c-0.3-0.077-0.586-0.26-0.861-0.543c-0.208-0.257-0.341-0.514-0.395-0.779
		c-0.071-0.264-0.104-0.557-0.093-0.879v-3.42c0.021-1.541,0.798-2.307,2.331-2.295h3.684v-2.597H100V36.92"/>
	<path id="path2513" fill="#E3001B" d="M10.841,30.887c0.154-0.068,0.308-0.121,0.463-0.153c0.282-1.352,1.478-2.364,2.913-2.364
		c1.434,0,2.631,1.015,2.913,2.364c0.44,0.084,0.805,0.262,1.088,0.527c0.011-0.26,0.001-0.51-0.03-0.744
		c-0.181-2.041-1.892-3.642-3.978-3.642c-2.148,0-3.896,1.701-3.987,3.829c-0.013,0.185-0.017,0.376-0.009,0.576
		C10.394,31.128,10.599,30.991,10.841,30.887"/>
	<path id="path2515" fill="#E3001B" d="M16.548,31.189h-4.786c-0.231,0-0.469,0.053-0.715,0.163
		c-0.237,0.104-0.432,0.229-0.588,0.378c-0.296,0.357-0.449,0.879-0.459,1.566v3.741c0.01,0.688,0.163,1.208,0.459,1.565
		c0.156,0.15,0.351,0.275,0.588,0.381c0.246,0.106,0.484,0.162,0.715,0.162h4.786c1.236-0.012,1.864-0.689,1.884-2.029v-3.899
		C18.412,31.876,17.784,31.2,16.548,31.189"/>
</g>
</svg>
