<?xml version="1.0" encoding="utf-8"?>
<!-- Generator: Adobe Illustrator 16.0.0, SVG Export Plug-In . SVG Version: 6.00 Build 0)  -->
<!DOCTYPE svg PUBLIC "-//W3C//DTD SVG 1.1//EN" "http://www.w3.org/Graphics/SVG/1.1/DTD/svg11.dtd">
<svg version="1.1" id="Layer_1" xmlns="http://www.w3.org/2000/svg" xmlns:xlink="http://www.w3.org/1999/xlink" x="0px" y="0px"
	 width="80px" height="50px" viewBox="0 0 80 50" enable-background="new 0 0 80 50" xml:space="preserve">
<g>
	<path fill-rule="evenodd" clip-rule="evenodd" fill="#F68E1F" d="M48.502,22.198c-0.219-1.012-0.688-1.774-1.343-2.35
		c-0.228-0.24-0.5-0.408-0.812-0.587c-0.157-0.091-0.271-0.146-0.475-0.223c-0.341-0.13-0.788-0.281-1.344-0.224
		c0.279-0.141,0.693-0.146,1.119-0.141c0.354,0.039,0.646,0.137,0.95,0.224c0.255,0.138,0.506,0.279,0.756,0.419
		c0.613-1.833,0.378-4.341-0.308-5.958c-0.664-1.695-1.626-3.091-2.88-4.195c-1.232-1.126-2.714-2.004-4.671-2.406
		c-0.969-0.209-2.188-0.175-3.078,0.029c-0.929,0.244-1.701,0.646-2.376,1.146c-0.627,0.557-1.236,1.132-1.65,1.902
		c-0.15,0.148-0.213,0.384-0.336,0.559c-0.086,0.212-0.183,0.415-0.279,0.615c-0.145,0.442-0.311,0.865-0.392,1.371
		c-0.224,0.916-0.264,2.173-0.112,3.161c0.115,1.06,0.425,1.924,0.756,2.769c0.203,0.393,0.389,0.804,0.614,1.174
		c0.214,0.374,0.479,0.695,0.728,1.035c0.563,0.611,1.168,1.18,1.874,1.651c1.429,0.931,3.068,1.648,5.314,1.762
		c0.044-0.092-0.062-0.274-0.084-0.393c-0.034-0.134-0.046-0.289-0.085-0.418c-0.032-0.302-0.041-0.653,0-0.951
		c0.09,0.022,0.087,0.137,0.141,0.195c0.048,0.054,0.065,0.139,0.14,0.167c0.058,0.158,0.179,0.25,0.251,0.392
		c0.213,0.217,0.377,0.482,0.644,0.643c0.214,0.216,0.499,0.359,0.756,0.532c0.276,0.142,0.514,0.325,0.84,0.418
		c0.555,0.293,1.3,0.396,2.041,0.505c0.747,0.102,1.469,0.228,2.153,0.391c0.632,0.217,1.275,0.422,1.791,0.754
		c0.271,0.156,0.539,0.318,0.782,0.505c0.118,0.095,0.269,0.159,0.363,0.28c0.147,0.058,0.212,0.197,0.363,0.251
		c0.435,0.415,0.863,0.833,1.232,1.313c0.151,0.277,0.358,0.5,0.476,0.813c0.102,0.111,0.132,0.297,0.223,0.42
		c0.007,0.158,0.159,0.348,0.027,0.475c-0.207,0.029-0.165-0.189-0.25-0.279c-0.067-0.109-0.152-0.203-0.197-0.336
		c-0.328-0.342-0.62-0.723-0.979-1.035c-0.354-0.309-0.702-0.621-1.118-0.865c-0.781-0.553-1.687-0.981-2.74-1.262
		c-1.039-0.299-2.203-0.419-3.552-0.334c-0.593,0.078-1.159,0.186-1.651,0.363c-0.529,0.131-1.12,0.203-1.706,0.279
		c-2.289,0.142-4.838-0.404-6.545-1.23c-0.911-0.421-1.749-0.917-2.46-1.538c-0.39-0.281-0.708-0.635-1.035-0.979
		c-0.299-0.362-0.614-0.71-0.839-1.147c-0.299-0.372-0.476-0.867-0.727-1.286c-0.164-0.498-0.395-0.928-0.503-1.482
		c-0.171-0.5-0.276-1.066-0.335-1.678c-0.01-0.168-0.085-0.493-0.084-0.755c0-0.023,0.03-0.044,0.028-0.084
		c-0.013-0.238-0.07-0.606,0-0.811c-0.013-0.555,0.087-1.236,0.196-1.763c0.101-0.561,0.25-1.074,0.419-1.566
		c0.167-0.504,0.387-0.955,0.587-1.426c0.135-0.202,0.237-0.434,0.364-0.643c0.106-0.219,0.267-0.385,0.364-0.615
		c0.107-0.061,0.127-0.209,0.223-0.279c0.043-0.125,0.16-0.177,0.196-0.308c0.092-0.077,0.165-0.171,0.224-0.28
		c0.085-0.082,0.174-0.161,0.224-0.279c0.333-0.329,0.631-0.692,0.979-1.007c0.347-0.325,0.734-0.609,1.092-0.923
		c0.226-0.108,0.39-0.28,0.614-0.392c0.17-0.156,0.418-0.234,0.588-0.391c0.466-0.205,0.864-0.479,1.37-0.644
		c0.437-0.225,0.96-0.363,1.455-0.531c1.073-0.275,2.157-0.465,3.496-0.419c0.048,0.006,0.071-0.048,0.083,0
		c2.535,0.077,4.382,0.84,5.958,1.874c1.561,1.04,2.771,2.432,3.636,4.167c0.847,1.719,1.323,4.055,0.924,6.517
		c-0.201,1.105-0.524,2.086-0.924,2.993c-0.229,0.424-0.433,0.873-0.699,1.259c-0.116,0.208-0.242,0.41-0.392,0.587
		c-0.05,0.108-0.122,0.196-0.196,0.28c-0.031,0.052-0.072,0.094-0.111,0.14c-0.013,0.025-0.024,0.051-0.056,0.057
		C48.538,22.219,48.504,22.227,48.502,22.198z"/>
	<path fill-rule="evenodd" clip-rule="evenodd" fill="#F68E1F" d="M47.831,22.925c-0.329-0.129-0.384-0.531-0.533-0.839
		c-0.026-0.113-0.049-0.284,0-0.392c0.023-0.005,0.029-0.027,0.057-0.027c0.083-0.053,0.161,0.013,0.279,0.055
		c0.16,0.185,0.264,0.428,0.336,0.699C47.976,22.642,47.992,22.873,47.831,22.925z"/>
	<path fill-rule="evenodd" clip-rule="evenodd" fill="#F68E1F" d="M45.369,22.45c0.005-0.032,0.028-0.016,0.028,0
		c0.495,0.063,0.724,0.395,0.754,0.923c-0.043,0.292-0.207,0.463-0.475,0.531c-0.668,0.012-1.048-0.603-0.812-1.231
		C44.999,22.565,45.093,22.417,45.369,22.45z"/>
	<path fill-rule="evenodd" clip-rule="evenodd" fill="#0269B3" d="M31.943,41.076c0.08,0.34,0.254,0.586,0.448,0.811
		c0.193,0.227,0.422,0.418,0.699,0.563c0.258,0.16,0.54,0.295,0.867,0.389c0.158,0.057,0.311,0.121,0.502,0.141
		c0.133,0.07,0.3,0.111,0.309,0.307c-0.007,0.236-0.166,0.32-0.364,0.365c-0.201-0.043-0.449-0.037-0.616-0.113
		c-0.424-0.049-0.764-0.186-1.118-0.309c-0.683-0.268-1.253-0.646-1.734-1.117c-0.098-0.164-0.231-0.291-0.335-0.449
		c-0.104-0.156-0.174-0.348-0.28-0.5c-0.831-0.111-1.399-0.486-1.902-0.924c-0.462-0.527-0.825-1.15-0.979-1.986
		c-0.177-0.803-0.122-1.801,0.084-2.572c0.458-1.502,1.423-2.494,3.245-2.631c0.502,0.016,0.94,0.078,1.342,0.225
		c0.405,0.146,0.789,0.416,1.091,0.699c0.025,0.023,0.037,0.025,0.056,0.055c0.063,0.096,0.221,0.221,0.308,0.336
		c0.017,0.021,0.01,0.061,0.028,0.086c0.034,0.045,0.084,0.066,0.111,0.111c0.019,0.027,0.013,0.057,0.029,0.082
		c0.021,0.035,0.051,0.084,0.084,0.141c0.012,0.023,0.047,0.039,0.055,0.057c0.048,0.092,0.068,0.205,0.113,0.307
		c0.045,0.105,0.104,0.203,0.14,0.309c0.106,0.32,0.177,0.695,0.223,1.092c0.109,1.123-0.113,2.131-0.53,2.879
		c-0.197,0.393-0.467,0.711-0.783,0.979C32.739,40.697,32.335,40.883,31.943,41.076z M30.602,34.027
		c-0.244,0.018-0.39,0.133-0.587,0.195c-0.131,0.123-0.293,0.213-0.392,0.365c-0.161,0.09-0.205,0.299-0.335,0.42
		c-0.109,0.271-0.214,0.572-0.28,0.922c-0.065,0.346-0.108,0.736-0.111,1.119c-0.007,0.965,0.198,1.92,0.587,2.49
		c0.225,0.277,0.5,0.506,0.839,0.67c0.195,0.018,0.349,0.08,0.559,0.086c0.118-0.045,0.316-0.002,0.392-0.086
		c0.171,0.014,0.214-0.104,0.364-0.111c0.079-0.08,0.169-0.148,0.28-0.197c0.1-0.113,0.198-0.229,0.307-0.334
		c0.057-0.084,0.086-0.193,0.168-0.252c0.486-0.93,0.542-2.639,0.223-3.721c-0.116-0.396-0.288-0.717-0.474-0.979
		c-0.207-0.213-0.45-0.391-0.728-0.531c-0.223-0.047-0.434-0.107-0.728-0.084c-0.017,0.002-0.033,0.004-0.028,0.027
		C30.639,34.027,30.62,34.027,30.602,34.027z"/>
	<path fill-rule="evenodd" clip-rule="evenodd" fill="#0269B3" d="M36.503,33.244c0.439,0.02,0.95-0.035,1.342,0.029
		c0.089,0.137,0.055,0.295,0.056,0.447c0.032,2.053,0,4.25,0,6.348c0,0.17,0.006,0.34,0,0.506c-0.003,0.139,0.032,0.289-0.056,0.42
		c-0.196,0.047-0.474,0.025-0.727,0.025c-0.263,0-0.524,0.037-0.7-0.057c-0.046-2.479-0.046-5.154,0-7.635
		C36.434,33.289,36.462,33.26,36.503,33.244z"/>
	<path fill-rule="evenodd" clip-rule="evenodd" fill="#0269B3" d="M39.859,33.244c0.438,0,0.876,0,1.313,0
		c0.119,0.162,0.155,0.404,0.196,0.645c0.396,1.508,0.787,3.018,1.146,4.559c0.086,0.01,0.059-0.092,0.085-0.139
		c0.037-0.037,0.017-0.135,0.056-0.17c0.015-0.123,0.09-0.188,0.083-0.334c0.101-0.189,0.131-0.449,0.224-0.645
		c0.115-0.455,0.263-0.875,0.392-1.314c0.123-0.455,0.291-0.865,0.393-1.342c0.185-0.383,0.229-0.908,0.447-1.26
		c0.186,0,0.372,0,0.559,0c0.202,0.379,0.273,0.885,0.448,1.287c0.112,0.457,0.272,0.865,0.392,1.314
		c0.276,0.871,0.56,1.732,0.811,2.631c0.112-0.168,0.112-0.449,0.195-0.645c0.049-0.223,0.093-0.449,0.168-0.643
		c0.217-0.885,0.42-1.781,0.671-2.629c0.096-0.447,0.187-0.896,0.336-1.287c0.324-0.047,0.824-0.047,1.147,0
		c0.029,0.328-0.127,0.684-0.225,0.979c-0.051,0.357-0.185,0.635-0.251,0.979c-0.199,0.631-0.354,1.307-0.56,1.93
		c-0.157,0.672-0.368,1.291-0.531,1.959c-0.107,0.311-0.187,0.652-0.28,0.979c-0.108,0.301-0.145,0.676-0.308,0.922
		c-0.26,0-0.521,0-0.782,0c-0.2-0.352-0.271-0.828-0.448-1.201c-0.39-1.234-0.824-2.422-1.202-3.666
		c-0.132,0.139-0.13,0.414-0.224,0.588c-0.059,0.213-0.118,0.424-0.196,0.615c-0.104,0.428-0.27,0.795-0.363,1.23
		c-0.155,0.387-0.271,0.811-0.391,1.232c-0.165,0.365-0.225,0.838-0.421,1.176c-0.207,0.061-0.529,0.01-0.782,0.025
		c-0.196-0.223-0.216-0.623-0.337-0.922c-0.095-0.314-0.158-0.66-0.278-0.951c-0.15-0.68-0.377-1.283-0.532-1.957
		c-0.203-0.627-0.376-1.285-0.56-1.93c-0.1-0.311-0.179-0.643-0.278-0.951c-0.046-0.338-0.274-0.639-0.197-1.008
		C39.796,33.275,39.825,33.26,39.859,33.244z"/>
	<path fill-rule="evenodd" clip-rule="evenodd" fill="#0269B3" d="M50.907,33.244c0.438,0.02,0.949-0.035,1.342,0.029
		c0.097,0.295,0.057,0.607,0.057,0.922c0,1.902,0,3.93,0,5.873c0,0.318,0.04,0.629-0.057,0.926
		c-0.302,0.033-0.747,0.045-1.119,0.025c-0.106-0.002-0.236,0.027-0.307-0.057c-0.098-0.289-0.056-0.602-0.056-0.922
		c0-1.891,0-3.826,0-5.818c0-0.352-0.033-0.688,0.056-0.922C50.844,33.275,50.874,33.26,50.907,33.244z"/>
	<path fill-rule="evenodd" clip-rule="evenodd" fill="#0269B3" d="M43.047,44.236c0.173,0.088,0.355,0.168,0.477,0.309
		c0.101,0.158,0.15,0.457,0.083,0.699c-0.248,0.516-1.112,0.559-1.762,0.391c0-0.848,0-1.695,0-2.545
		c0.192-0.098,0.495-0.082,0.783-0.084c0.188,0.025,0.374,0.055,0.532,0.111c0.207,0.129,0.384,0.404,0.278,0.756
		C43.34,44.025,43.248,44.186,43.047,44.236z M43.047,43.846c0.072-0.535-0.363-0.627-0.811-0.561c0,0.299,0,0.598,0,0.896
		C42.651,44.215,42.927,44.107,43.047,43.846z M43.188,45.16c0.143-0.574-0.37-0.852-0.924-0.727
		c-0.064,0.277-0.009,0.68-0.027,1.008C42.648,45.471,43.026,45.443,43.188,45.16z"/>
	<path fill-rule="evenodd" clip-rule="evenodd" fill="#0269B3" d="M36.754,43.035c0.061,0.303,0.012,0.713,0.028,1.063
		c0.017,0.051,0.117-0.049,0.111-0.111c0.049-0.037,0.111-0.059,0.112-0.141c0.095-0.074,0.172-0.164,0.225-0.279
		c0.188-0.146,0.282-0.391,0.475-0.531c0.104,0.008,0.248-0.023,0.308,0.027c-0.095,0.238-0.281,0.391-0.419,0.588
		c-0.13,0.197-0.307,0.346-0.419,0.559c0.146,0.264,0.352,0.467,0.503,0.727c0.178,0.234,0.381,0.439,0.504,0.727
		c-0.102,0.061-0.304,0.016-0.448,0.029c-0.17-0.203-0.309-0.438-0.475-0.645c-0.139-0.234-0.329-0.418-0.448-0.67
		c-0.065,0.373-0.009,0.867-0.028,1.285c-0.083,0.059-0.264,0.016-0.391,0.029c-0.049-0.809-0.045-1.939,0-2.656
		C36.512,43.035,36.634,43.035,36.754,43.035z"/>
	<path fill-rule="evenodd" clip-rule="evenodd" fill="#0269B3" d="M40.559,43.789C40.599,43.771,40.555,43.756,40.559,43.789
		c-0.485,0.615-0.917,1.285-1.399,1.902c-0.112,0-0.224,0-0.335,0c-0.047-0.82-0.047-1.836,0-2.656c0.104,0,0.205,0,0.307,0
		c0,0.67,0,1.342,0,2.012c0.025,0.076,0.068-0.057,0.085-0.082c0.039-0.045,0.079-0.088,0.112-0.141
		c0.058-0.1,0.137-0.18,0.195-0.279c0.132-0.186,0.279-0.354,0.392-0.559c0.165-0.152,0.25-0.385,0.419-0.533
		c0.039-0.119,0.117-0.201,0.196-0.279c0.008-0.16,0.19-0.146,0.363-0.139c-0.018,0.875,0.038,1.826-0.028,2.656
		c-0.093,0-0.186,0-0.279,0C40.521,45.113,40.576,44.414,40.559,43.789z"/>
	<path fill-rule="evenodd" clip-rule="evenodd" fill="#0269B3" d="M44.753,43.063c0,0.615,0,1.229,0,1.846
		c0.026,0.076,0.068-0.059,0.085-0.084c0.058-0.008,0.056-0.074,0.083-0.113c0.078-0.061,0.104-0.174,0.196-0.223
		c0.084-0.195,0.231-0.326,0.336-0.502c0.241-0.309,0.458-0.643,0.698-0.951c0.112,0,0.225,0,0.337,0
		c0.047,0.82,0.047,1.836,0,2.656c-0.094,0-0.188,0-0.28,0c-0.064-0.615-0.011-1.352-0.028-2.014
		c-0.023-0.053-0.017,0.029-0.057,0.027c-0.012,0.025-0.022,0.051-0.056,0.055c-0.003,0.072-0.051,0.102-0.083,0.143
		c-0.063,0.094-0.127,0.189-0.195,0.279c-0.125,0.193-0.277,0.357-0.392,0.561c-0.135,0.18-0.288,0.346-0.392,0.557
		c-0.194,0.123-0.171,0.465-0.56,0.393c-0.047-0.82-0.047-1.836,0-2.656C44.549,43.043,44.693,43.012,44.753,43.063z"/>
</g>
</svg>
