<?xml version="1.0" encoding="utf-8"?>
<!-- Generator: Adobe Illustrator 15.1.0, SVG Export Plug-In . SVG Version: 6.00 Build 0)  -->
<!DOCTYPE svg PUBLIC "-//W3C//DTD SVG 1.1//EN" "http://www.w3.org/Graphics/SVG/1.1/DTD/svg11.dtd">
<svg version="1.1" id="Layer_1" xmlns="http://www.w3.org/2000/svg" xmlns:xlink="http://www.w3.org/1999/xlink" x="0px" y="0px"
	 width="64px" height="40px" viewBox="0 0 64 40" enable-background="new 0 0 64 40" xml:space="preserve">
<g>
	<g>
		<path fill="#EF7C00" d="M47.346,16.414c0.162,0.129,0.303,0.275,0.42,0.443c0.297,0.43,0.411,0.94,0.344,1.526h1.527l-2.303,6.33
			h2.303l2.303-6.33h2.957l0.717-1.97L47.346,16.414L47.346,16.414z"/>
		<path fill="#EF7C00" d="M47.23,17.228c-0.379-0.545-1.148-0.812-2.355-0.813h-2.793l-3.021,8.298h2.565l1.101-2.92
			c0.053,0.119,0.7,2.92,0.7,2.92h2.698c0,0-0.491-2.058-0.854-2.89c-0.092-0.214-0.188-0.452-0.317-0.652
			c0.763-0.282,1.866-0.892,2.323-2.124C47.559,18.289,47.543,17.677,47.23,17.228 M44.997,19.062
			c-0.246,0.663-0.688,1.073-1.53,1.073h-0.003h-0.437l0.744-2.008h0.424C44.971,18.127,45.26,18.354,44.997,19.062"/>
		<path fill="#EF7C00" d="M21.442,16.409h-4.758c-0.75,0-1.479,0-2.132,0.331c-0.652,0.332-1.229,0.995-1.673,2.321
			c-0.096,0.285-0.146,0.53-0.153,0.743c-0.007,0.215,0.03,0.396,0.111,0.554c0.1,0.193,0.261,0.375,0.464,0.527
			c0.202,0.153,0.445,0.277,0.707,0.357c0.009,0.003,0.147,0.042,0.313,0.089c0.166,0.048,0.36,0.104,0.482,0.144
			c0.072,0.021,0.151,0.049,0.223,0.094c0.071,0.041,0.136,0.1,0.176,0.178c0.026,0.053,0.041,0.109,0.042,0.172
			s-0.009,0.129-0.033,0.199c-0.061,0.18-0.154,0.296-0.33,0.367c-0.175,0.07-0.434,0.094-0.826,0.097H9.161l-0.774,2.126h5.24
			c0.494,0,1.396,0,2.261-0.368c0.867-0.368,1.697-1.104,2.05-2.575c0.132-0.555,0.091-1.005-0.125-1.358
			c-0.217-0.354-0.611-0.61-1.183-0.774c0,0-0.128-0.037-0.279-0.081c-0.15-0.043-0.323-0.092-0.413-0.118
			c-0.146-0.042-0.259-0.126-0.326-0.234c-0.066-0.107-0.086-0.238-0.048-0.372c0.04-0.14,0.134-0.25,0.272-0.326
			c0.138-0.076,0.318-0.118,0.53-0.118h3.046c0.021-0.031,0.041-0.065,0.063-0.097C20.031,17.496,20.704,16.859,21.442,16.409"/>
		<path fill="#EF7C00" d="M26.117,17.187c-0.415-0.593-1.124-0.895-2.112-0.896c-0.645,0-1.272,0.148-1.86,0.426
			c-0.841,0.396-1.603,1.062-2.225,1.941c-0.404,0.572-0.75,1.234-1.021,1.977c-0.511,1.398-0.505,2.533,0.018,3.281
			c0.296,0.423,0.912,0.928,2.163,0.93h0.004c2.28,0,3.981-1.494,5.059-4.44C26.428,19.624,26.803,18.169,26.117,17.187
			 M23.677,20.521c-0.712,1.945-1.228,2.436-2.005,2.436h-0.001c-0.756-0.001-1.022-0.479-0.313-2.416
			c0.528-1.447,1.214-2.372,2.042-2.372l0,0C24.189,18.169,24.369,18.626,23.677,20.521"/>
		<path fill="#EF7C00" d="M35.227,16.409h-4.85c-1.355,0-2.364,0.687-2.841,1.971l-2.303,6.327h2.523l1.184-3.253l2.229,0.001
			l0.634-1.741l-2.222-0.001l0.358-1.01c0.074-0.18,0.253-0.324,0.514-0.324c0.145,0,1.782,0.001,2.629,0.001
			c0.021-0.031,0.041-0.065,0.063-0.097C33.7,17.496,34.488,16.859,35.227,16.409"/>
		<path fill="#EF7C00" d="M39.872,17.187c-0.414-0.593-1.124-0.895-2.112-0.896c-0.645,0-1.271,0.148-1.859,0.426
			c-0.84,0.396-1.603,1.062-2.225,1.941c-0.404,0.572-0.75,1.234-1.021,1.977c-0.51,1.398-0.503,2.533,0.02,3.281
			c0.295,0.423,0.91,0.928,2.162,0.93h0.004c2.28,0,3.982-1.494,5.059-4.44C40.184,19.624,40.559,18.169,39.872,17.187
			 M37.432,20.521c-0.709,1.945-1.227,2.436-2.004,2.436h-0.001c-0.757-0.001-1.021-0.479-0.313-2.416
			c0.527-1.447,1.214-2.372,2.041-2.372h0.003C37.943,18.169,38.124,18.626,37.432,20.521"/>
	</g>
</g>
</svg>
