<?xml version="1.0" encoding="utf-8"?>
<!-- Generator: Adobe Illustrator 16.0.0, SVG Export Plug-In . SVG Version: 6.00 Build 0)  -->
<!DOCTYPE svg PUBLIC "-//W3C//DTD SVG 1.1//EN" "http://www.w3.org/Graphics/SVG/1.1/DTD/svg11.dtd">
<svg version="1.1" id="Layer_1" xmlns="http://www.w3.org/2000/svg" xmlns:xlink="http://www.w3.org/1999/xlink" x="0px" y="0px"
	 width="80px" height="50px" viewBox="0 0 80 50" enable-background="new 0 0 80 50" xml:space="preserve">
<g>
	<g>
		<path fill-rule="evenodd" clip-rule="evenodd" fill="#0072B8" d="M66.786,16.046c1.407,0,2.737,0.327,3.923,0.909
			c0.188,0.088,0.374,0.186,0.559,0.293l-0.824,0.737l-1.238-1.28l-2.089,1.864l-1.242-1.354l-3.894,3.509l2.496,2.751l-0.981,0.862
			l2.459,2.756l-0.975,0.86l3.513,3.91l2.086-1.919l1.802,2.058c-0.357,0.277-0.749,0.54-1.18,0.783
			c-1.304,0.743-2.81,1.169-4.414,1.169c-4.932,0-8.952-4.023-8.952-8.954C57.834,20.068,61.854,16.046,66.786,16.046L66.786,16.046
			z"/>
		<polygon fill-rule="evenodd" clip-rule="evenodd" fill="#0072B8" points="65.154,24.434 67.284,22.517 69.201,24.646 
			67.072,26.563 65.154,24.434 		"/>
		<polygon fill-rule="evenodd" clip-rule="evenodd" fill="#0072B8" points="66.669,28.113 68.799,26.196 70.716,28.326 
			68.587,30.243 66.669,28.113 		"/>
		<polygon fill-rule="evenodd" clip-rule="evenodd" fill="#0072B8" points="63.632,20.798 65.761,18.882 67.678,21.011 
			65.549,22.927 63.632,20.798 		"/>
		<polygon fill-rule="evenodd" clip-rule="evenodd" fill="#0072B8" points="67.539,19.767 69.136,18.329 70.573,19.926 
			68.976,21.363 67.539,19.767 		"/>
		<polygon fill-rule="evenodd" clip-rule="evenodd" fill="#0072B8" points="70.375,26.353 71.973,24.914 73.411,26.511 
			71.814,27.949 70.375,26.353 		"/>
		<polygon fill-rule="evenodd" clip-rule="evenodd" fill="#0072B8" points="71.78,29.577 73.377,28.14 74.814,29.736 73.219,31.174 
			71.78,29.577 		"/>
		<polygon fill-rule="evenodd" clip-rule="evenodd" fill="#0072B8" points="72.423,22.186 73.488,21.227 74.446,22.291 
			73.382,23.25 72.423,22.186 		"/>
		<polygon fill-rule="evenodd" clip-rule="evenodd" fill="#0072B8" points="71.064,19.021 72.128,18.063 73.086,19.128 
			72.022,20.086 71.064,19.021 		"/>
		<polygon fill-rule="evenodd" clip-rule="evenodd" fill="#0072B8" points="73.785,25.348 74.849,24.39 75.808,25.454 
			74.744,26.412 73.785,25.348 		"/>
		<polygon fill-rule="evenodd" clip-rule="evenodd" fill="#0072B8" points="69.011,22.978 70.607,21.54 72.045,23.137 
			70.449,24.574 69.011,22.978 		"/>
	</g>
	<g>
		<path fill="#0072B8" d="M8.371,23.456H8.3l-1.349,5.099H5.848l-1.655-7.243h1.145l1.144,5.405h0.071l1.328-5.405H8.79l1.42,5.405
			h0.071l1.042-5.405h1.196l-1.655,7.243H9.76L8.371,23.456z"/>
		<path fill="#0072B8" d="M17.045,27.431v0.776c-0.459,0.267-1.072,0.471-1.808,0.471c-1.716,0-2.421-1.063-2.421-2.677
			c0-1.554,0.787-2.677,2.319-2.677c1.277,0,2.063,0.827,2.063,2.492v0.378h-3.33c0,1.226,0.501,1.768,1.553,1.768
			C15.973,27.962,16.483,27.768,17.045,27.431z M13.889,25.51h2.339c-0.051-1.072-0.572-1.501-1.124-1.501
			C14.481,24.009,14.001,24.488,13.889,25.51z"/>
		<path fill="#0072B8" d="M19.19,23.702c0.306-0.163,0.827-0.378,1.379-0.378c1.267,0,1.951,0.878,1.951,2.514
			c0,1.91-0.919,2.84-2.4,2.84c-0.542,0-1.379-0.174-1.992-0.501v-7.131l1.063-0.255V23.702z M19.18,27.799
			c0.327,0.144,0.684,0.163,0.94,0.163c0.756,0,1.328-0.47,1.328-2.124c0-1.298-0.47-1.718-1.154-1.718
			c-0.409,0-0.705,0.113-1.113,0.338V27.799z"/>
		<path fill="#0072B8" d="M27.168,27.021h0.051l2.186-5.71h1.267v7.243h-1.103v-5.251h-0.092l-2.083,5.251h-0.654l-2.084-5.129
			h-0.092v5.129h-0.918v-7.243h1.236L27.168,27.021z"/>
		<path fill="#0072B8" d="M31.797,26.001c0-1.788,0.98-2.677,2.328-2.677c1.349,0,2.33,0.889,2.33,2.677
			c0,1.747-0.93,2.677-2.33,2.677C32.726,28.678,31.797,27.748,31.797,26.001z M35.382,26.001c0-1.38-0.562-1.962-1.257-1.962
			c-0.674,0-1.256,0.582-1.256,1.962c0,1.399,0.531,1.961,1.256,1.961C34.851,27.962,35.382,27.4,35.382,26.001z"/>
		<path fill="#0072B8" d="M37.426,24.08c0.459-0.275,1.43-0.756,2.604-0.756c1.227,0,1.685,0.48,1.685,1.531v3.699h-1.062v-3.463
			c0-0.808-0.398-0.95-0.919-0.95c-0.409,0-0.93,0.184-1.247,0.367v4.046h-1.062V24.08z"/>
		<path fill="#0072B8" d="M46.894,27.431v0.776c-0.459,0.267-1.071,0.471-1.808,0.471c-1.716,0-2.42-1.063-2.42-2.677
			c0-1.554,0.787-2.677,2.319-2.677c1.276,0,2.063,0.827,2.063,2.492v0.378h-3.33c0,1.226,0.501,1.768,1.554,1.768
			C45.822,27.962,46.333,27.768,46.894,27.431z M43.739,25.51h2.338c-0.051-1.072-0.571-1.501-1.123-1.501
			C44.33,24.009,43.851,24.488,43.739,25.51z"/>
		<path fill="#0072B8" d="M51.022,23.497h1.093l-1.849,5.108c-0.512,1.41-1.136,2.146-2.309,2.146v-0.837
			c0.694,0,1.122-0.553,1.368-1.309l-1.961-5.108h1.123l1.308,3.76h0.062L51.022,23.497z"/>
	</g>
</g>
</svg>
